<svg width="27" height="27" viewBox="0 0 27 27" fill="none" xmlns="http://www.w3.org/2000/svg">
<path d="M8.49388 1.19043C8.49388 1.19043 1.24488 9.65797 10.1408 19.0904C10.1408 19.0904 2.33229 16.4996 1.48275 10.4534C1.48275 10.4534 0.226648 4.28979 8.49388 1.19043Z" fill="#6BB94F"/>
<path d="M7.76328 13.5527C7.76328 13.5527 8.78151 1.19043 21.8025 2.76553C21.8025 2.76553 16.1495 -1.85808 10.9381 0.851436C10.9211 0.851436 3.51922 4.86486 7.76328 13.5527Z" fill="#EE7541"/>
<path d="M10.8192 8.08287C10.8192 8.08287 13.994 2.78248 22.0234 3.89994C22.0234 3.89994 27.8464 5.64454 26.8949 15.7538C26.8779 15.7538 23.6521 3.5101 10.8192 8.08287Z" fill="#E9555F"/>
<path d="M17.3716 7.79472C17.3716 7.79472 27.2687 17.4475 17.3716 26.7613C17.3716 26.7613 23.4324 25.1523 25.7238 19.5638C25.7238 19.5638 28.0661 11.25 17.3716 7.79472Z" fill="#EA589F"/>
<path d="M20.5464 14.399C20.5464 14.399 16.1325 26.9308 4.24983 23.2891C4.24983 23.2891 7.79726 28.1149 14.113 26.7601C14.1118 26.7613 22.1411 26.1524 20.5464 14.399Z" fill="#32B7E9"/>
<path d="M0.430538 10.8432C0.430538 10.8432 3.18062 22.1898 16.3873 19.565C16.3873 19.565 11.7185 25.2383 4.24983 22.3593C4.24983 22.3581 -1.60714 19.3955 0.430538 10.8432Z" fill="#118E9B"/>
</svg>
